<svg xmlns="http://www.w3.org/2000/svg" width="11" height="11" version="1" shape-rendering="geometricPrecision" text-rendering="geometricPrecision" image-rendering="optimizeQuality" fill-rule="evenodd" clip-rule="evenodd"><defs><style>.fil0{fill:#fff212;fill-rule:nonzero}</style></defs><g id="Layer_x0020_1"><g id="_2579386447312"><path class="fil0" d="M11 6H7s1-1 3-1c1 0 1 1 1 1zm0-3L7 5l2-2h2zM8 0L6 4V1c1-1 2-1 2-1zM3 0l2 4-2-2V0zM2 2l2 2S3 4 2 3s0-1 0-1zM0 3l4 2H1C0 4 0 3 0 3zm0 2h4S3 6 1 6C0 6 0 5 0 5zm0 3l4-2-2 2H0zm3 3l2-4v3c-1 1-2 1-2 1zm5 0L6 7l2 2v2zm1-2L7 7s1 0 2 1 0 1 0 1z"/><path class="fil0" d="M11 8L7 6h3c1 1 1 2 1 2z"/></g></g></svg>