<?xml version="1.0" encoding="UTF-8"?>
<!DOCTYPE svg PUBLIC "-//W3C//DTD SVG 1.0//EN" "http://www.w3.org/TR/2001/REC-SVG-20010904/DTD/svg10.dtd">
<!-- Creator: CorelDRAW X8 -->
<svg xmlns="http://www.w3.org/2000/svg" xml:space="preserve" width="14px" height="14px" version="1.0" style="shape-rendering:geometricPrecision; text-rendering:geometricPrecision; image-rendering:optimizeQuality; fill-rule:evenodd; clip-rule:evenodd"
viewBox="0 0 14 14"
 xmlns:xlink="http://www.w3.org/1999/xlink">
 <defs>
  <style type="text/css">
   <![CDATA[
    .fil0 {fill:#FFF212;fill-rule:nonzero}
   ]]>
  </style>
 </defs>
 <g id="Layer_x0020_1">
  <metadata id="CorelCorpID_0Corel-Layer"/>
  <g id="_2579386447312">
   <path class="fil0" d="M11 6l-4 0c0,0 1,-1 3,-1 1,0 1,1 1,1z"/>
   <path class="fil0" d="M11 3l-4 2c0,0 1,-1 2,-2 1,0 2,0 2,0z"/>
   <path class="fil0" d="M8 0l-2 4c0,0 0,-1 0,-3 1,-1 2,-1 2,-1z"/>
   <path class="fil0" d="M3 0l2 4c0,0 -1,-1 -2,-2 0,-1 0,-2 0,-2z"/>
   <path class="fil0" d="M2 2l2 2c0,0 -1,0 -2,-1 -1,-1 0,-1 0,-1z"/>
   <path class="fil0" d="M0 3l4 2c0,0 -1,0 -3,0 -1,-1 -1,-2 -1,-2z"/>
   <path class="fil0" d="M0 5l4 0c0,0 -1,1 -3,1 -1,0 -1,-1 -1,-1z"/>
   <path class="fil0" d="M0 8l4 -2c0,0 -1,1 -2,2 -1,0 -2,0 -2,0z"/>
   <path class="fil0" d="M3 11l2 -4c0,0 0,1 0,3 -1,1 -2,1 -2,1z"/>
   <path class="fil0" d="M8 11l-2 -4c0,0 1,1 2,2 0,1 0,2 0,2z"/>
   <path class="fil0" d="M9 9l-2 -2c0,0 1,0 2,1 1,1 0,1 0,1z"/>
   <path class="fil0" d="M11 8l-4 -2c0,0 1,0 3,0 1,1 1,2 1,2z"/>
  </g>
 </g>
</svg>
